<?xml version="1.0" standalone="no"?>
<!DOCTYPE svg PUBLIC "-//W3C//DTD SVG 20010904//EN"
 "http://www.w3.org/TR/2001/REC-SVG-20010904/DTD/svg10.dtd">
<svg version="1.0" xmlns="http://www.w3.org/2000/svg"
 width="159.000000pt" height="159.000000pt" viewBox="0 0 159.000000 159.000000"
 preserveAspectRatio="xMidYMid meet">

<g transform="translate(0.000000,159.000000) scale(0.100000,-0.100000)"
fill="#000000" stroke="none">
<path d="M926 1202 c-3 -5 -31 -128 -61 -273 -31 -145 -61 -281 -67 -302 -17
-55 -49 -77 -115 -77 -46 0 -55 -3 -62 -22 -14 -36 13 -50 84 -46 73 4 116 31
146 90 12 23 47 163 79 312 75 350 72 320 33 324 -17 2 -34 -1 -37 -6z"/>
<path d="M290 435 c0 -49 166 -147 307 -180 116 -28 290 -18 413 24 101 34
198 85 207 107 3 8 3 21 0 29 -5 11 -17 7 -61 -19 -30 -18 -99 -48 -153 -66
-83 -28 -116 -34 -218 -38 -91 -3 -137 0 -185 12 -77 20 -184 69 -257 119 -52
35 -53 35 -53 12z"/>
</g>
</svg>
